<svg width="148" height="148" viewBox="0 0 148 148" fill="none" xmlns="http://www.w3.org/2000/svg">
<rect width="148" height="148" rx="30" fill="url(#paint0_linear_2768_2668)"/>
<g filter="url(#filter0_d_2768_2668)">
<rect x="54" y="33.8" width="35.2" height="4.4" rx="2.2" fill="white"/>
<rect x="54" y="25" width="26.4" height="4.4" rx="2.2" fill="white"/>
<rect x="54" y="42.6001" width="44" height="4.4" rx="2.2" fill="white"/>
<rect x="54" y="51.3999" width="44" height="4.4" rx="2.2" fill="white"/>
<rect x="54" y="60.2" width="39.6" height="4.4" rx="2.2" fill="white"/>
<rect x="54" y="69" width="30.8" height="4.4" rx="2.2" fill="white"/>
<rect x="54" y="77.8" width="22" height="4.4" rx="2.2" fill="white"/>
<rect x="54" y="86.6001" width="26.4" height="4.4" rx="2.2" fill="white"/>
<rect x="54" y="95.3999" width="30.8" height="4.4" rx="2.2" fill="white"/>
<rect x="54" y="104.2" width="35.2" height="4.4" rx="2.2" fill="white"/>
<rect x="54" y="113" width="39.6" height="4.4" rx="2.2" fill="white"/>
<rect x="54" y="121.8" width="44" height="4.4" rx="2.2" fill="white"/>
</g>
<defs>
<filter id="filter0_d_2768_2668" x="50" y="25" width="52" height="109.2" filterUnits="userSpaceOnUse" color-interpolation-filters="sRGB">
<feFlood flood-opacity="0" result="BackgroundImageFix"/>
<feColorMatrix in="SourceAlpha" type="matrix" values="0 0 0 0 0 0 0 0 0 0 0 0 0 0 0 0 0 0 127 0" result="hardAlpha"/>
<feOffset dy="4"/>
<feGaussianBlur stdDeviation="2"/>
<feComposite in2="hardAlpha" operator="out"/>
<feColorMatrix type="matrix" values="0 0 0 0 0 0 0 0 0 0 0 0 0 0 0 0 0 0 0.25 0"/>
<feBlend mode="normal" in2="BackgroundImageFix" result="effect1_dropShadow_2768_2668"/>
<feBlend mode="normal" in="SourceGraphic" in2="effect1_dropShadow_2768_2668" result="shape"/>
</filter>
<linearGradient id="paint0_linear_2768_2668" x1="74" y1="0" x2="74" y2="148" gradientUnits="userSpaceOnUse">
<stop stop-color="#1A1725"/>
<stop offset="1" stop-color="#100F16"/>
</linearGradient>
</defs>
</svg>
